<svg xmlns="http://www.w3.org/2000/svg" width="3527" height="1110" viewBox="0 0 3527 1110"><path d="M260.701 185.561c-22.87 6.275-46.032 21.49-60.581 39.795-14.342 18.046-53.945 90.088-80.888 147.144-13.264 28.089-20.376 44.87-35.387 83.5-10.672 27.463-22.935 66.286-32.243 102.076-10.506 40.398-15.761 80.194-15.77 119.424-.011 52.497 9.949 98.098 29.378 134.5 21.947 41.12 52.26 70.417 93.158 90.038 20.981 10.065 41.561 16.48 67.101 20.915 18.327 3.182 24.222 3.549 56.531 3.517 27.326-.028 31.853-.271 43.5-2.334 47.978-8.502 92.161-26.197 130.5-52.265C521.939 827.038 563.733 765.342 573.107 699c1.754-12.41 1.486-38.51-.518-50.494-2.221-13.283-6.544-30.07-10.818-42.006-.591-1.65-8.592-18.525-17.779-37.5-27.149-56.069-33.758-73.395-34.715-91-.607-11.15.676-15.358 5.867-19.257 4.963-3.729 11.894-4.743 32.405-4.743 15.988 0 18.451.207 18.451 1.548 0 .851-.704 7.619-1.564 15.04-.861 7.421-1.423 14.384-1.25 15.472.314 1.977 10.13-3.834 66.814-39.553 6.325-3.986 18.35-11.468 26.723-16.627 8.373-5.159 15.235-9.877 15.25-10.485.015-.608-2.786-3.08-6.223-5.494-13.913-9.77-21.973-15.531-65.621-46.91-12.304-8.846-22.592-15.861-22.864-15.59-.697.697-4.099 31.938-3.577 32.849.237.413-12.087.75-27.385.75-30.294 0-45.41 1.273-64.497 5.432-14.127 3.078-21.159 5.506-30.433 10.508-19.146 10.328-28.786 21.779-34.986 41.56-1.541 4.917-1.872 9.068-1.837 23 .04 15.505.332 18.275 3.323 31.5 4.005 17.714 4.763 20.479 12.346 45 3.316 10.725 6.375 20.85 6.799 22.5.423 1.65 3.307 11.221 6.409 21.27 7.903 25.607 12.464 42.558 13.649 50.73 1.458 10.049 1.211 29.654-.493 39.172-7.967 44.521-40.621 81.56-89.583 101.615-21.273 8.713-42.477 12.451-71 12.514-34.509.076-54.346-4.81-78.811-19.409-18.069-10.783-36.525-32.3-45.733-53.316-8.439-19.263-14.405-42.425-15.99-62.076-1.721-21.345-.762-57.54 2.069-78.06 14.196-102.897 63.394-228.27 146.858-374.243 5.284-9.241 9.607-16.95 9.607-17.131 0-1.46-11.722-2.554-26.693-2.493-15.587.064-18.904.375-26.606 2.488m2945.711 175.957c-11.666 1.509-26.091 6.051-35.412 11.15-21.817 11.936-37.599 34.29-43.37 61.43-2.6 12.228-2.745 13.677-3.33 33.152l-.562 18.75h-50.766l.264 31.75.264 31.75 25.25.267 25.25.267V796h75V549.5l70 .263 70 .264v83.914c0 53.835.382 86.718 1.066 91.737 4.4 32.295 18.032 53.234 42.572 65.391 11.848 5.868 26.84 8.775 49.362 9.571 15.714.555 43.89-.606 55.75-2.297l4.25-.606v-34.869c0-19.177-.338-34.854-.75-34.836-.412.017-5.475.678-11.25 1.468-30.204 4.133-51.867-.884-59.412-13.759-5.316-9.072-5.49-11.954-5.553-92.241l-.059-74h76.524l.264-31.75.264-31.75h-77.008l-.26-45.75-.26-45.75-37.75-.262-37.75-.262V486h-140.304l.584-12.25c1.016-21.328 6.511-33.441 18.305-40.353 8.433-4.942 12.284-5.372 48.178-5.385l33.264-.012-.264-33.75-.263-33.75-41-.143c-28.664-.1-44.035.249-51.088 1.161m-623.01 118.545c-25.438 1.96-47.611 8.07-64.122 17.669-20.955 12.182-32.767 25.976-39.621 46.268-3.679 10.893-4.659 17.738-4.659 32.555 0 22.952 5.811 39.517 18.776 53.52 18.421 19.896 38.889 28.929 84.724 37.387 30.954 5.712 44.964 9.311 57.285 14.714 12.018 5.271 17.355 10.102 19.613 17.756 2.011 6.817 2.022 11.289.046 17.946-2.953 9.943-11.467 16.428-25.944 19.761-11.314 2.606-36.829 2.602-48-.007-19.424-4.537-30.941-14.806-34.634-30.882l-1.321-5.75H2468.7l.607 10.75c.978 17.333 6.035 30.945 16.809 45.244 16.918 22.452 43.826 36.068 82.001 41.494 6.944.987 18.83 1.48 35.883 1.489 39.179.021 58.006-3.423 81.5-14.911 24.911-12.18 40.518-30.783 46.652-55.606 2.998-12.133 3.226-34.211.474-45.96-3.173-13.552-7.073-20.722-17.047-31.344-10.063-10.716-26.177-20.097-45.724-26.617-5.855-1.953-20.48-5.587-32.5-8.076-52.916-10.957-63.542-14.214-75.996-23.297-12.072-8.805-13.254-30.223-2.264-41.007 12.41-12.177 43.31-16.736 64.64-9.537 14.886 5.024 25.337 17.197 26.508 30.878l.257 3 38.75.262 38.75.261v-2.287c0-1.259-.472-6.102-1.048-10.762-3.847-31.114-21.79-56.259-50.473-70.733-7.61-3.841-26.4-9.709-37.479-11.705-8.891-1.602-33.269-3.614-41-3.385-2.475.074-9.044.484-14.598.912m310.853-.02c-27.499 2.255-55.174 11.765-77.755 26.72-10.415 6.897-10.865 7.275-23.592 19.803-19.464 19.16-33.971 44.159-40.859 70.414-3.928 14.972-4.561 21.464-4.487 46.02.07 23.336 1.462 33.339 6.902 49.598 8.732 26.097 20.364 44.66 39.941 63.74 21.141 20.603 49.063 35.241 79.708 41.787 8.988 1.92 13.553 2.227 33.887 2.279 20.549.053 24.906-.223 34.695-2.192 32.087-6.454 58.763-20.664 81.961-43.661 16.987-16.841 26.383-30.962 35.772-53.763 4.091-9.936 9.138-28.653 9.919-36.788 2.107-21.942 1.502-41.313-1.781-57.086-2.329-11.19-7.968-27.885-12.664-37.498-12.418-25.417-34.867-50.461-58.402-65.15-21.212-13.239-48.603-22.048-75.5-24.28-12.652-1.05-14.286-1.047-27.745.057M304.829 555.499c-32.987 6.265-60.736 39.156-61.167 72.501-.148 11.519 1.287 17.85 6.572 29 3.222 6.796 5.575 10.028 11.735 16.121 12.16 12.027 25.198 17.176 43.531 17.191 29.025.024 54.506-16.342 68.297-43.864 5.221-10.422 7.132-18.669 7.284-31.451.323-27.042-17.938-51.626-43.581-58.672-7.68-2.11-23.77-2.517-32.671-.826m2592.671-.476c-45.477 6.892-76.182 48.796-70.647 96.412 1.453 12.5 3.794 20.051 9.942 32.065 3.739 7.307 6.401 10.801 14.155 18.576 13.502 13.538 26.008 19.997 44.488 22.978 10.308 1.663 27.954.702 37.562-2.045 48.012-13.732 72.276-69.726 51.429-118.684-8.534-20.041-20.25-32.342-39.876-41.865-4.979-2.416-11.978-5.066-15.553-5.889-8.432-1.942-23.889-2.701-31.5-1.548" fill="#e40414" fill-rule="evenodd"/><path d="M1820.973 358.277c-17.115 5.835-28.841 21.381-29.792 39.499-1.006 19.155 8.242 34.956 25.319 43.263 25.411 12.36 57.481-1.165 65.029-27.426 1.236-4.3 1.587-8.479 1.3-15.5-.333-8.177-.852-10.584-3.471-16.113-5.617-11.859-15.233-20.303-27.449-24.105-8.73-2.717-22.338-2.549-30.936.382M1953 439.988V486h-53.028l.264 31.75.264 31.75h52l.56 88.5c.507 80.021.73 89.219 2.334 96 8.964 37.907 27.858 56.944 63.606 64.089 16.921 3.381 59.889 3.513 82.75.254l4.25-.606v-34.869c0-19.177-.338-34.854-.75-34.836-.412.017-5.475.678-11.25 1.468-12.347 1.689-27.537 1.906-35.114.501-8.684-1.61-18.976-7.192-22.506-12.206-7.285-10.347-7.38-11.572-7.38-94.967v-72.804l38.25-.262 38.25-.262.264-31.75.264-31.75h-77.008l-.26-45.75-.26-45.75-37.75-.262-37.75-.262v46.012M778 597v199h98.788c79.868 0 100.983-.275 110.25-1.436 29.204-3.659 54.632-12.876 74.363-26.956 46.342-33.069 55.381-103.253 18.653-144.827-9.111-10.312-28.374-22.282-44.426-27.606l-5.872-1.947 8.346-4.342c4.591-2.388 11.628-6.982 15.639-10.209 31.368-25.234 40.614-71.652 22.533-113.122-5.108-11.716-10.225-18.853-21.187-29.555-17.736-17.315-40.697-28.351-71.587-34.407-16.681-3.27-26.588-3.577-115.75-3.585L778 398v199m79-76.998v50.138l46.75-.409c49.616-.434 52.044-.645 65.457-5.694 8.59-3.234 19.792-11.011 23.623-16.402 1.832-2.577 4.505-7.487 5.94-10.91 2.258-5.389 2.616-7.703 2.665-17.225.109-21.497-6.956-32.941-25.935-42.008-13.481-6.441-16.658-6.768-70.25-7.221l-48.25-.408v50.139m405.402-39.971c-35.729 3.414-68.946 17.351-93.574 39.263-32.971 29.335-51.756 69.634-53.51 114.795-1.409 36.286 7.608 68.835 27.263 98.411 21.633 32.554 57.822 56.445 98.866 65.272 11.013 2.369 14.081 2.594 35.553 2.615 26.44.026 34.646-1.074 52.867-7.088 24.931-8.229 46.447-21.389 64.133-39.226 22.431-22.624 36.861-49.688 43.064-80.774 2.697-13.517 3.657-38.072 2.027-51.889-1.435-12.168-5.322-29.321-8.644-38.147-2.825-7.506-15.033-31.404-17.393-34.048-.855-.957-4.149-5.17-7.32-9.36-6.35-8.392-17.95-19.87-27.234-26.948-26.279-20.035-59.837-31.778-95-33.245-6.6-.275-16.094-.109-21.098.369m369.944.063c-29.561 2.977-54.832 15.066-76.012 36.361-5.591 5.621-11.102 11.756-12.246 13.633l-2.081 3.412-.003-23.75L1542 486h-76v310h75.915l.367-83.75c.316-72.164.584-84.534 1.934-89.42 7.245-26.221 17.519-42.943 33.172-53.991 15.004-10.59 25.249-14.12 41.112-14.165 28.111-.078 49.605 15.246 56.897 40.565 3.093 10.741 3.551 25.223 3.577 113.023l.026 87.762 37.75-.262 37.75-.262v-108c0-115.247.073-113.329-5.018-131.5-8.261-29.485-25.806-52.039-49.982-64.248-18.865-9.527-44.36-13.953-67.154-11.658m619.537-.047c-23.873 2.126-45.494 9.351-65.369 21.842-35.988 22.619-58.344 56.404-68.231 103.111-2.383 11.26-2.653 14.683-2.714 34.5-.074 23.623.578 29.347 5.473 48.083 5.404 20.684 12.607 36.162 24.921 53.55 20.004 28.25 52.171 49.371 86.525 56.814 19.745 4.278 53.51 3.777 71.949-1.068 9.626-2.53 24.06-9.097 32.186-14.644 6.439-4.396 17.185-14.456 22.148-20.735l3.162-4 .033 19.25L2362 796h76V486h-76v38.119l-5.958-7.407c-6.155-7.651-18.131-17.807-26.907-22.82-12.687-7.246-30.189-12.18-49.154-13.859-12.628-1.117-15.418-1.116-28.098.014M1799.247 640.75l.253 154.75 37.75.262 37.75.262V486h-76.006l.253 154.75M1266.5 555.044c-42.691 6.62-71.429 40.999-71.487 85.522-.037 28.354 11.446 52.851 32.24 68.777 14.289 10.945 29.766 16.186 48.747 16.507 25.44.43 45.422-7.754 61.693-25.266 11.264-12.123 16.983-23.419 20.524-40.535 3.888-18.794.928-44.928-6.829-60.289-10.707-21.2-30.306-36.971-53.25-42.849-8.891-2.278-23.447-3.137-31.638-1.867m1000.972-.002c-18.386 2.404-34.33 9.94-47.339 22.373-11.31 10.809-19.217 24.787-23.352 41.284-1.775 7.079-2.195 11.541-2.145 22.801.076 17.094 1.984 25.226 9.492 40.454 4.452 9.031 6.395 11.701 14.263 19.602 18.271 18.347 37.399 25.388 65.609 24.152 10.202-.447 14.247-1.109 22-3.604 12.238-3.937 22.696-10.134 31.626-18.738 10.602-10.216 17.327-21.355 21.457-35.537 2.731-9.379 3.765-33.27 1.931-44.65-7.181-44.578-47.745-74.126-93.542-68.137M857 673.017v51.016l51.75-.049c51.055-.048 59.075-.454 71.665-3.631 13.826-3.49 27.358-13.007 32.856-23.11 7.423-13.638 7.514-33.866.219-48.263-3.171-6.257-12.004-14.133-20.188-18-16.239-7.673-29.194-8.956-90.552-8.97L857 622v51.017" fill="#042494" fill-rule="evenodd"/></svg>