<svg xmlns="http://www.w3.org/2000/svg" width="3520" height="758" viewBox="0 0 3520 758"><path d="M235 1.961C207.784 7.79 182.659 23.712 165.506 46c-14.637 19.019-64.064 111.104-87.222 162.5C36.407 301.437 10.327 387.8 2.336 460c-2.365 21.367-2.366 67.174-.002 85.965C9.932 606.356 30.419 653.441 64.5 688.837c12.452 12.932 21.247 20.41 34.112 29.002 29.225 19.519 63.607 31.765 105.888 37.715 14.969 2.106 56.769 3.014 72 1.564 52.159-4.966 103.716-23.526 149-53.638 63.994-42.553 105.588-99.503 119.214-163.224 2.55-11.928 2.729-14.379 2.757-37.756.026-22.015-.238-26.318-2.211-36.041-4.788-23.594-7.532-30.749-28.757-74.959-19.673-40.978-24.093-51.063-29.535-67.389-8.245-24.733-7.46-36.819 2.842-43.762 5.085-3.427 11.817-4.349 31.739-4.349H540v2.871c0 1.579-.705 9.275-1.566 17.101-.862 7.826-1.414 14.381-1.228 14.568.187.186 25.401-15.271 56.033-34.348 42.648-26.561 55.41-34.956 54.478-35.834-2.053-1.934-93.616-67.382-95.027-67.924-1.015-.389-1.608 2.352-2.548 11.779-.673 6.758-1.481 14.365-1.794 16.905l-.571 4.618-31.638.563c-33.607.597-46.634 1.844-64.889 6.21-49.178 11.764-70.946 41.618-64.945 89.069 1.736 13.728 7.712 38.566 15.019 62.422 27.49 89.757 28.596 93.981 29.331 112 1.483 36.314-12.578 69.54-40.861 96.557-25.35 24.216-58.528 39.546-97.4 45.004-14.041 1.971-40.085 2.219-52.394.499-53.921-7.539-91.203-38.575-108.477-90.305-3.939-11.798-7.927-30.789-9.504-45.255-1.597-14.666-1.33-49.344.52-67.412 10.789-105.368 62.024-239.323 150.685-393.97 7.43-12.959 9.636-17.586 8.672-18.182C276.595-.34 248.475-.925 235 1.961m1591 175.074c-14.743 2.618-27.698 12.683-34.195 26.568-5.655 12.085-4.835 29.822 1.912 41.372 3.944 6.752 12.439 14.52 19.631 17.953 28.855 13.771 63.192-3.358 67.916-33.88 4.853-31.351-23.159-57.716-55.264-52.013m1411.5 4.621c-12.986 1.544-20.057 2.868-26.976 5.049-31.228 9.846-51.479 32.01-60.024 65.695-3.258 12.846-4.496 22.564-5.201 40.85l-.608 15.75H3093v64h52v252h77V373h143v86.928c0 56.176.378 89.643 1.068 94.605 4.899 35.226 22.553 58.788 51.15 68.271 16.024 5.314 26.294 6.598 52.782 6.599 20.367.002 42.581-1.395 48.25-3.032 1.624-.469 1.75-3.028 1.75-35.438 0-19.213-.338-34.929-.75-34.925-.412.004-6.133.679-12.712 1.5-15.054 1.878-26.086 1.871-35.021-.022-14.164-3-22.193-9.058-26.646-20.105l-2.371-5.881-.279-79.25-.279-79.25H3520v-64h-78v-93h-77v93h-143l.017-10.25c.04-23.47 7.417-38.521 22.236-45.365l6.247-2.885 36.25-.297 36.25-.296V181l-41.25.15c-22.687.082-42.6.31-44.25.506M1953 262.5V309h-54v64h54v83.539c0 50.86.406 87.338 1.039 93.25 2.659 24.863 9.879 41.986 23.527 55.792 11.56 11.694 25.187 18.086 46.934 22.016 7.703 1.391 15.283 1.814 33 1.837 19.854.027 47.41-1.69 49.75-3.1.412-.249.75-16.226.75-35.504v-35.053l-3.25.576c-9.672 1.713-26.41 2.827-34.75 2.312-21.318-1.315-32.437-8.431-37.762-24.165-1.521-4.495-1.724-12.909-2.005-83.25l-.313-78.25H2108v-64h-78v-93h-77v46.5M756 422.584v202.585l102.75-.445c87.117-.376 104.386-.686 113.501-2.034 61.584-9.112 99.623-38.27 111.476-85.453 1.301-5.177 1.687-11.137 1.666-25.737-.031-22.157-1.394-28.963-8.814-44-10.165-20.604-29.748-36.722-56.533-46.53l-7.455-2.729 5.455-2.746c14.782-7.441 30.611-21.57 38.232-34.126 14.893-24.533 16.604-62.107 4.173-91.617-15.867-37.666-56.268-62.744-110.662-68.69-6.135-.671-43.592-1.062-101.75-1.062H756v202.584m80-79.533v51.051l50.25-.344c48.634-.334 50.486-.417 57.589-2.58 26.788-8.156 40.294-24.469 40.301-48.678.009-29.299-19.077-45.97-56.64-49.473-6.05-.564-29.112-1.026-51.25-1.026L836 292v51.051m409.5-39.42c-9.304.975-26.384 4.696-35.978 7.839-54.494 17.851-94.004 62.564-106.724 120.781-1.972 9.027-2.239 13.112-2.239 34.249 0 26.842 1.151 34.788 8.029 55.428 22.477 67.446 88.199 110.909 162.912 107.735 35.03-1.488 63.165-10.688 91.294-29.855 10.643-7.252 31.359-28.202 38.868-39.308 11.762-17.395 21.06-39.107 25.412-59.341 2.687-12.495 3.698-41.329 1.97-56.215-8.201-70.663-61.034-126.168-132.782-139.5-8.496-1.579-41.68-2.764-50.762-1.813m371.5.958c-30.051 4.819-58.06 21.234-77.172 45.227l-5.828 7.315V309h-77v316h77v-81.869c0-88.172.11-90.353 5.325-105.631 8.208-24.045 23.244-41.781 44.415-52.391 17.216-8.628 42.054-8.163 59.568 1.116 9.221 4.886 18.62 14.641 23.086 23.96 6.753 14.092 6.569 10.797 6.589 118.065L1673 625h77l-.004-110.75c-.004-122.876.123-120.154-6.592-140.25-12.051-36.064-37.83-59.677-74.404-68.153-11.716-2.715-38.826-3.371-52-1.258m636.5-.898c-26.642 3.471-48.122 11.442-68.637 25.468-33.168 22.677-56.49 60.686-63.828 104.022-9.779 57.759 6.19 115.311 42.204 152.106 30.641 31.306 70.403 46.486 116.181 44.354 33.253-1.548 55.758-9.988 75.69-28.386 3.429-3.165 8.183-8.392 10.563-11.615l4.327-5.86V625h76V309h-76l-.011 19.75-.011 19.75-2.699-3.5c-10.135-13.147-25.613-25.65-39.605-31.994-8.348-3.785-22.556-7.486-34.174-8.903-8.429-1.028-33.309-1.284-40-.412m330.5.838c-18.559 2.32-32.391 5.965-45.77 12.062-21.956 10.006-38.971 26.813-46.822 46.251-5.188 12.845-5.909 17.442-5.899 37.658.008 16.817.273 19.914 2.303 26.955 9.29 32.214 39.203 54.021 86.588 63.124 51.561 9.906 62.574 12.633 76.12 18.854 13.329 6.122 19.451 14.341 19.47 26.139.033 20.367-14.937 30.708-46.49 32.115-39.355 1.755-61.022-10.203-66.93-36.937l-.608-2.75h-78.261l.642 8.75c2.312 31.516 18.041 56.574 45.657 72.738 22.616 13.237 52.121 19.508 91.789 19.511 21.266.001 33.398-1.02 49.16-4.138 10.735-2.124 27.366-7.463 34.516-11.082 24.856-12.58 41.186-32.825 47.219-58.539 2.495-10.632 2.491-36.863-.006-46.24-6.842-25.687-25.917-43.921-58.528-55.945-11.012-4.06-19.068-6.047-50.777-12.524-14.78-3.019-30.923-6.661-35.873-8.093-10.809-3.129-24.168-9.215-29.506-13.443-9.268-7.34-12.432-23.56-6.747-34.585 6.255-12.13 19.641-18.55 41.753-20.026 16.077-1.073 29.316 1.789 39.889 8.622 9.249 5.978 14.596 14.446 16.573 26.244l.629 3.75h78.112l-.656-7.25c-2.194-24.223-9.807-42.553-23.826-57.363-18.818-19.881-43.446-30.465-79.932-34.352-12.986-1.384-40.808-1.128-53.789.494m324-.956c-1.375.238-5.875.911-10 1.495-65.255 9.236-119.436 60.238-133.001 125.197-9.427 45.143-.812 92.115 23.691 129.158 8.478 12.817 28.099 32.645 40.81 41.239 27.176 18.374 55.626 27.541 90 29.001 81.867 3.478 150.353-47.62 168.426-125.663 6.596-28.486 5.011-63.051-4.15-90.5-18.633-55.829-64.549-95.844-123.397-107.54-8.327-1.655-15.453-2.239-30.379-2.491-10.725-.181-20.625-.134-22 .104M1796 467v158h77V309h-77v158M270.373 380.979c-21.841 5.726-42.015 22.723-51.315 43.233-4.995 11.016-6.452 18.088-6.446 31.288.005 10.761.316 12.882 3.007 20.544 1.65 4.699 4.708 11.117 6.795 14.26 8.235 12.407 22.275 21.933 37.229 25.26 11.154 2.481 27.065 1.607 38.171-2.098 24.887-8.302 44.208-28.645 51.308-54.023 2.826-10.097 3.082-25.919.572-35.284-4.62-17.241-16.337-31.635-31.694-38.937-4.675-2.223-10.885-4.532-13.799-5.132-8.353-1.718-25.615-1.265-33.828.889m976.188-.388c-35.713 7.96-60.928 37.013-65.648 75.638-3.355 27.459 7.774 58.856 26.899 75.884 17.438 15.527 37.958 22.697 61.688 21.556 21.064-1.014 34.635-6.429 51.346-20.49 19.924-16.764 31.681-48.798 28.241-76.95-4.41-36.092-26.613-63.762-59.587-74.257-9.318-2.966-32.485-3.711-42.939-1.381m1018.911-.123c-26.99 6.188-46.919 22.137-58.474 46.795-11.943 25.485-11.647 55.258.8 80.494 20.674 41.915 72.771 58.376 116.671 36.865 13.215-6.476 23.588-15.438 31.419-27.146 9.756-14.587 14.126-30.501 14.09-51.314-.028-16.593-2.382-27.355-8.894-40.661-10.617-21.693-28.562-36.964-51.212-43.58-9.474-2.767-35.023-3.603-44.4-1.453m643.528-.041c-17.374 3.862-31.607 11.983-43.575 24.863-10.637 11.447-16.785 23.063-21.018 39.71-2.865 11.268-2.654 33.519.426 44.933 11.049 40.947 45.185 65.989 86.938 63.781 13.643-.722 20.185-2.469 33.2-8.866 9.187-4.515 11.651-6.324 20.102-14.747 12.403-12.363 18.961-23.678 23.535-40.601 2.607-9.647 2.682-36.034.128-45.338-9.15-33.335-31.187-55.786-62.01-63.176-9.526-2.284-28.688-2.568-37.726-.559M836 500v52l50.25-.008c27.638-.005 54.3-.466 59.25-1.024 37.922-4.28 58.157-24.084 56.164-54.968-1.406-21.8-12.117-35.267-33.931-42.662-14.138-4.793-22.023-5.326-78.983-5.332L836 448v52" fill="#fffcfc" fill-rule="evenodd"/></svg>