<svg xmlns="http://www.w3.org/2000/svg" xmlns:xlink="http://www.w3.org/1999/xlink" viewBox="0 0 640 640" width="32" height="32"><defs><path d="M640 320c0 176.61-143.39 320-320 320S0 496.61 0 320 143.39 0 320 0s320 143.39 320 320z" id="a"/><path d="M320 140c-59.98 0-111.14 33.52-135.84 82.92-63.51 8.82-111.15 59.98-111.15 123.49 0 67.04 56.46 123.49 123.5 123.49h268.15c58.22 0 102.33-45.86 102.33-102.32 0-54.69-44.11-100.56-95.27-104.09C457.61 192.93 395.86 140 320 140z" id="b"/></defs><use xlink:href="#a" fill-opacity="0"/><use xlink:href="#b" fill="#fff"/><use xlink:href="#b" fill-opacity="0" stroke="#000" stroke-opacity="0"/></svg>