<svg xmlns="http://www.w3.org/2000/svg" viewBox="0 0 1000 1000"><path d="M984.1 122.3C946.5 84.5 911.4 42.1 867.8 11c-40-8.3-59.2 34.9-86.7 55.1 46.4 53.9 100.5 101.5 150.4 152.5 22.6-26.9 76.2-54.5 52.6-96.3zm-24.8 203.6c-31.7 31.8-64.5 62.8-95.1 95.8-.8 127.5.3 255-.4 382.6-.6 47-41.8 88.7-88.8 90.3-193.4.8-387 .8-580.4.1-52.2-1.4-94-51.4-89.9-102.7-.1-184.6-.1-369.1 0-553.5-4-51.1 38-100.3 89.6-102.1 128.1-1.7 256.3.1 384.3-.9 33.2-30 63.9-62.9 95.7-94.5-170.6 0-341-.9-511.6.5-79.6 1.4-151 71-152.4 151-.2 215.2-.8 430.3.4 645.5.3 77.5 66.1 144.7 142.4 152h670.2c72.3-12.7 134.3-75.8 135.2-150.9 2.2-171 .5-342.2.8-513.2zm-51.1-83.7C858 191.7 807.4 141.5 756.6 91.5 645.4 201.9 534 312 423.4 423c50.1 50.4 100.4 100.6 151.3 150.3C686 463.1 797.2 352.6 908.2 242.2zm-567 412.4c68.1-18.5 104.4-30.2 172.5-48.5 18.2-5.8 30.3-9.3 39.7-13-48.2-45.9-103.6-102.5-151.7-148.8-20.3 70.1-40.3 140.2-60.5 210.3z"/></svg>