<svg version="1.0" xmlns="http://www.w3.org/2000/svg" width="584" height="686.667" viewBox="0 0 438 515"><g fill="#e22936"><path d="M161 6.5c-13.2 2.3-25.4 8-36.1 16.9C114.2 32.2 110.2 38 90.5 73 46.9 150.8 15.9 232.1 5.4 296.5 2.2 316 1 352.2 2.9 369.1c7.5 64.8 39.2 110.3 91.6 131.2 21.2 8.5 45.8 12.7 73.7 12.7 34.2 0 61-6.3 93.3-22 64.9-31.5 107.4-90.5 107.5-149.4 0-11.9-2.5-28-6.2-39.6-1.6-5.2-7.9-19.6-14-32-18.8-38.7-24-52.2-24.2-63.7-.2-12.9 3.4-15.2 24.8-15.2l13.8-.1-.6 4.2c-.3 2.4-.8 7.6-1.2 11.7l-.7 7.5 4.4-2.6c11.8-6.9 70.4-44 70.6-44.6.3-.8-63-46.2-64.5-46.2-.5 0-1.2 3.5-1.6 7.7-.4 4.3-.9 9.4-1.2 11.4l-.6 3.6h-19.6c-22.4 0-35.9 1.4-47.9 4.9-24.5 7.1-37.3 20.1-40.4 40.8-2.3 15.2.8 30 17.1 82.6 11.6 37.5 12.5 41.2 12.4 55.5 0 15.3-1.4 21.7-7.9 35.2-17.6 36.4-59.6 58.8-107 57-59.3-2.2-91.5-41.5-91.5-111.5.1-71.8 35.3-172.2 100.1-284.9 4.8-8.4 8.4-15.5 7.9-15.8-1.3-.8-14.2-2.5-18.5-2.4-2.2.1-7.4.7-11.5 1.4z"/><path d="M180 261.3c-14.3 4.9-24.5 13.9-31.3 27.6l-4.2 8.4v12.6c0 11.6.2 13.1 2.7 18.3 5 10.7 15.2 19.4 26.3 22.3 31.2 8.1 63.5-17 63.5-49.4 0-7.9-1.6-15.4-4.3-20.7-2.4-4.7-10.3-13-15-15.7-10.4-6.1-25.8-7.5-37.7-3.4z"/></g></svg>