<svg data-name="Layer 1" xmlns="http://www.w3.org/2000/svg" viewBox="0 0 122.88 108.12"><path d="M28.45 55.88v.32l4.44-4.46a6.68 6.68 0 119.48 9.42L27.14 76.51a6.69 6.69 0 01-9.32.15L2.28 63a6.68 6.68 0 018.8-10l4 3.54a54.33 54.33 0 018-31 52.56 52.56 0 0124-20.73 60.17 60.17 0 0111-3.51 52.58 52.58 0 0160.1 31.09 58.07 58.07 0 013.47 11 52.47 52.47 0 01-1.31 26.95A53.16 53.16 0 01105.8 93a57.11 57.11 0 01-22.56 13.1 48.52 48.52 0 01-40.51-5.89A6.68 6.68 0 0150 89a35.12 35.12 0 005.53 3 34.21 34.21 0 005.7 1.86 35.43 35.43 0 0018.23-.54 43.77 43.77 0 0017.28-10.13 39.7 39.7 0 0010.93-17.06 39 39 0 001-20.08 46.38 46.38 0 00-2.68-8.5 39.19 39.19 0 00-45-23.22 45 45 0 00-8.52 2.72A39 39 0 0034.5 32.49a40.94 40.94 0 00-6.05 23.39zM60.83 34a6.11 6.11 0 0112.22 0v19l14.89 8.27A6.09 6.09 0 1182 71.93l-17.57-9.77a6.11 6.11 0 01-3.6-5.57V34z"/></svg>