<svg xmlns="http://www.w3.org/2000/svg" viewBox="0 0 1000 1000"><path d="M574 487.1c-17.3 0-31.6-14.2-31.6-31.6l-25.3-225.7c0-17.3 14.2-31.6 31.6-31.6h90.2c17.3 0 31.6 14.2 31.6 31.6l-25.2 225.7c0 17.3-14.2 31.6-31.6 31.6H574zM638.2 591c0 13.9-11.4 25.2-25.2 25.2h-38.3c-13.9 0-25.2-11.4-25.2-25.2v-38.3c0-13.9 11.4-25.2 25.2-25.2H613c13.9 0 25.2 11.4 25.2 25.2V591z"/><path d="M384.8 615.2c-114.6-114.5-114.6-301 0-415.5 114.5-114.5 301-114.5 415.5 0 114.6 114.6 114.6 301 0 415.5-114.6 114.6-301 114.6-415.5 0m488.9 73.5c155.1-155.1 155.1-407.3 0-562.4-155-155.1-407.3-155.1-562.4 0-131.5 131.5-151.4 327.2-59.8 479.9 0 0 6.6 11-2.3 19.9L46.3 829C6 869.4-3.6 925.9 32.2 961.7l6.2 6.2c35.8 35.8 92.3 26.2 132.7-14.2l202.5-202.5c9.3-9.3 20.3-2.7 20.3-2.7 152.6 91.6 348.3 71.7 479.8-59.8"/></svg>