<svg xmlns="http://www.w3.org/2000/svg" xmlns:xlink="http://www.w3.org/1999/xlink" viewBox="0 0 640 640" width="640" height="640"><defs><path d="M428.31 402.52c-6.03-6.04-9.39-9.4-10.06-10.07 35.86-41.53 57.45-95.5 57.45-154.6C475.7 106.48 369.22 0 237.85 0 106.49 0 0 106.48 0 237.85S106.48 475.7 237.85 475.7c59.1 0 113.07-21.59 154.6-57.27l10.07 10.07v28.9L585.48 640 640 585.48 457.4 402.52h-29.09zM73.19 237.85c0-90.93 73.73-164.66 164.66-164.66 90.93 0 164.67 73.73 164.67 164.66 0 90.93-73.74 164.67-164.67 164.67-90.93 0-164.66-73.74-164.66-164.67z" id="a"/></defs><use xlink:href="#a"/><use xlink:href="#a" fill-opacity="0" stroke="#000" stroke-opacity="0"/></svg>